<svg xmlns="http://www.w3.org/2000/svg" viewBox="0 0 3120 2540.93"><title>common-gallery</title><polygon points="3120 2196.19 0 1381.1 0 0 3120 0 3120 2196.19" fill="#0063cf"/><path d="M1289.76,2049.64l1.4,1.29Z" fill="#5c6387"/><path d="M1274.8,2033.84Z" fill="#5c6387"/><path d="M1248.52,1927.34c.13-.57.28-1.12.42-1.63h0C1248.8,1926.22,1248.65,1926.77,1248.52,1927.34Z" fill="#5c6387"/><path d="M1249.56,1985.55c-.15-.54-.28-1.09-.42-1.63h0Z" fill="#5c6387"/><path d="M1619.16,2252.74c.57-.34,1.14-.68,1.63-1Z" fill="#5c6387"/><path d="M1636.22,2240.83l.57-.46-.55.44Z" fill="#5c6387"/><path d="M1636.79,2240.37l1-.76.2-.16-.2.16Z" fill="#5c6387"/><path d="M1446.16,2271" fill="#5c6387"/><path d="M1454.18,2273.46l-2-.6h0Z" fill="#5c6387"/><path d="M1591.13,2266.78l-1.87.72h0Z" fill="#5c6387"/><path d="M1591.37,2117.25a41.89,41.89,0,0,1-9.39,7.53c-23.22,13.54-61,13.54-84.34,0a42.57,42.57,0,0,1-7.21-5.24c-11.68-10.41-16.43-26-10.4-36.2.26-.44-.7-3.25-.41-3.68,1.94-2.77,6.33-2.08,10.8-2.25a14.3,14.3,0,0,0,6.93-1.63c23.22-13.52,61-13.52,84.34,0a27.66,27.66,0,0,0,9.66,2.9c3.86.67,7.19,1.25,8.75,4.1C1605.25,2092.13,1601.17,2106.79,1591.37,2117.25Z" fill="#4b1a0f"/><path d="M1591.37,2117.25v-38.54c3.86.67,7.19,1.25,8.75,4.1C1605.25,2092.13,1601.17,2106.79,1591.37,2117.25Z" fill="#3d130c"/><path d="M1490.44,2077.42v42.12c-11.68-10.41-16.43-26-10.4-36.2.26-.44-.7-3.25-.41-3.68C1481.57,2076.84,1486,2077.58,1490.44,2077.42Z" fill="#3d130c"/><polygon points="1750.42 2163.92 1751.46 2158.3 1751.46 2125.14 1748.27 2134.27 1750.42 2163.92" fill="#272727"/><path d="M1750.42,2163.92l-20.65.5-.41-17-17-14s1.72-22.43,3.09-22.13,35,13,35,13Z" fill="#4b1a0f"/><polygon points="1597.83 2081.86 1598.43 2107.78 1609.4 2107.39 1602.53 2081.72 1597.83 2081.86" fill="#4b1a0f"/><polygon points="1329 2162.09 1327.93 2154.96 1328.04 2113.02 1330.21 2120.91 1329 2162.09" fill="#272727"/><polygon points="1329 2119.75 1329 2162.09 1349.83 2162.09 1349.83 2145.04 1396.99 2107.03 1481 2107.32 1481.3 2081.85 1405.16 2078.37 1393.9 2080.95 1347.44 2116.66 1329 2119.75" fill="#4b1a0f"/><polygon points="1349.83 2119.75 1329 2119.75 1328.04 2113.02 1329 2106.51 1349.62 2106.25 1349.83 2119.75" fill="#bd6940"/><polygon points="1348.72 2112.68 1349.62 2106.25 1396.99 2067.81 1396.1 2074.57 1348.72 2112.68" fill="#b86440"/><path d="M1397,2081.16l-47.18,38.59-1.11-7.09,47.37-38.09S1398.11,2078.17,1397,2081.16Z" fill="#bd6940"/><polygon points="1529.58 2278 1553.16 2278 1553.16 2235.23 1529.68 2235.46 1529.58 2278" fill="#b0603d"/><path d="M1593.94,2082.11l3.9-.26,7.17-.2-3.53-13.68-5.79.2Z" fill="#bd6940"/><polygon points="1529.68 2235.46 1527.95 2105.36 1551.67 2108.82 1552.72 2235.98 1540.82 2235.69 1529.68 2235.46" fill="#bd6940"/><ellipse cx="1539.63" cy="2074.79" rx="34.64" ry="59.63" transform="translate(-539.46 3608.62) rotate(-89.84)" fill="#bd6940"/><path d="M1424.37,1852.33a47.73,47.73,0,0,0-4.2,3.6s-4,3.38-4.54,5.27a63.87,63.87,0,0,0-.34,9l.75,18.06a48.3,48.3,0,0,0,7.22,6.23c2.55,1.4,15.36,8,15.36,8l23.64,10.07,15.7-5.43s26,24.68,26,24.94,8.38,7.47,8.38,7.47l56.45,22.89s24.08,2.29,30.55-.89,4.88-15.55,4.88-15.55l-26.63-5.69Z"/><path d="M1429.9,1807.12a39.22,39.22,0,0,0-3.79,10c-.7,4.34-1.79,13.11-1.79,13.11l-1.2,16.15s-.94,12.77-.5,16.27,4.8,7.14,9.88,9.32,19.85,8.23,19.85,8.23l24.48,14.06s26.31,19.29,30.11,22.6,11.81,13.39,13,13.54,48.89,19.31,48.89,19.31,16.19,4.54,25.67-.68-7.55-93.64-7.55-93.64l-19.75-25.23-13.86-.29Z" fill="#131313"/><path d="M1255.73,1954.82l-2.46.83a18.58,18.58,0,0,0-3,3.25A27.35,27.35,0,0,0,1247,1966c0,1.22,3,18.24,3,18.24a39.83,39.83,0,0,0,2.23,5.55,49.59,49.59,0,0,0,4.52,6.51l8.13,5.81,26,16.12a30.68,30.68,0,0,0,5.79-1.29,50.17,50.17,0,0,0,6.51-3.14l16.9,16.27s18.24,16.56,27.74,20.24,27.66,11,45,12.28,38.15,0,45.7-2,25.51-8.82,33.14-14.06,17.2-11.39,17.2-11.39,10.4-8.13,10.25-12.33a18.33,18.33,0,0,0-6-12.27c-3.14-2.39-12-5.91-12-5.91Z"/><path d="M1253.32,1916.31s-2.54.23-2,15.34a176.77,176.77,0,0,0,2,23.25s.26,11.39,2.39,14.87,13.11,9.66,13.11,9.66l27.28,15,33.61,27.22s27.12,17.1,31.4,19.25,33.27,8.93,41.79,9.32a151.3,151.3,0,0,0,30.67-2.25,192.13,192.13,0,0,0,27.51-10.41c5.38-2.7,22.94-14.37,25.36-18.2,2.11-3.37,1.72-9.76.81-12.41a32,32,0,0,0-4.88-10.48c-3-3.81-10-11.08-14.06-13.16s-30.44-14.64-30.44-14.64L1414,1956.27s-7.63-5-12.49-8.9-13.32-14.37-13.32-14.37L1377,1920.3Z" fill="#131313"/><path d="M1424.52,1657.54l-2.39,140s3.58,29.28,27.82,35.3c3.25.8,52.53,13.83,67.32,14.06s52.06-16.15,55.8-22.43-13.63-62.83-13.63-62.83l-19.78-91.25Z" fill="#003c5c"/><path d="M1291.83,1952.66c48.32,9,61.48,12.87,78.09,0s15-26.47,15-26.47l-15.41-143-43.93-203.13-117.48-28.23s-7,126.9,3.25,164.32c5.56,20.38,23.93,46.27,31.11,78.58s9.76,128,9.76,128a30.23,30.23,0,0,0,3.38,12.46C1259,1941.81,1266.65,1948,1291.83,1952.66Z" fill="#003c5c"/><path d="M863.91,1905.14s-2.42,11.88-18.68,11.39-19.52-7.52-19.52-7.52l-1.63-4.12.44-29.77V1874s2.39-8.75,8.82-10.46,26.26,3.25,26.26,3.25,4.15,3.55,4.29,7.37v.89C864,1881,863.91,1905.14,863.91,1905.14Z" fill="#c41727"/><path d="M863.94,1875a18.29,18.29,0,0,1-7.09,7.63s-4.57,2.68-14.64,2.39a22.61,22.61,0,0,1-15.78-6.28,15.26,15.26,0,0,1-1.89-3.6V1874s2.39-8.75,8.82-10.46,26.26,3.25,26.26,3.25,4.15,3.55,4.29,7.37C863.93,1874.29,863.93,1874.58,863.94,1875Z" fill="#b3121d"/><path d="M829,1866.25l53.41-442.37,37.09,17.65-60.19,427.87s-4.88,13.16-25.43,5.24C833.81,1874.58,828.28,1871.95,829,1866.25Z" fill="#303030"/><path d="M1115.21,2049.41a10.3,10.3,0,0,1-4,7.26s-6.85,5.71-20.3,4.38-15.33-10.05-15.33-10.05-.52-20.38,0-29.5a32.42,32.42,0,0,1,.31-3.25,12.8,12.8,0,0,1,5.69-8.13s24.68,1.25,27.07.5,6.51,8,6.51,8v1.29C1115.34,2025.13,1115.7,2045.06,1115.21,2049.41Z" fill="#c41727"/><path d="M1115,2019.9a25.56,25.56,0,0,1-2.54,4.62,1.63,1.63,0,0,1-.37.36c-1.45,1.12-10.43,7.47-24.18,4.12a22.27,22.27,0,0,1-12.38-7.47,32.42,32.42,0,0,1,.31-3.25,12.8,12.8,0,0,1,5.69-8.13s24.68,1.25,27.07.5,6.51,8,6.51,8A9.89,9.89,0,0,1,1115,2019.9Z" fill="#b3121d"/><path d="M1077.62,1547.45l3.25,466.54s2.39,9.27,17.2,7.63c0,0,10-.75,11.57-5s.55-10.82.55-10.82l7.17-456.19Z" fill="#303030"/><path d="M1138.8,1546s-18.55,13-29.9,17.34-22.34,3.25-46.48-12.36-116.08-67.81-116.08-67.81l-106.25-60L781.85,1389a69.78,69.78,0,0,1-2.8-19.52,39.76,39.76,0,0,1,1.81-11.91c4.59-14,18.16-23.13,18.16-23.13l114.42-66.18,3.25,3.53,197,219.09Z" fill="#c41727"/><path d="M917.43,1268.27l-86.76,51.44s-14.37,6.3,11.39,21.25,77.47,43.68,77.47,43.68l161.24,95.12s58-96,55.2-96.85S960,1295,960,1295Z" fill="#b3121d"/><path d="M916.56,1271.85l-85.95,53.2s-34.51,22.78-44.09,31.32c-3,2.67-5.5,7.6-7.58,13.11a39.76,39.76,0,0,1,1.81-11.91c4.59-14,18.16-23.13,18.16-23.13l114.53-66.17Z" fill="#a91220"/><path d="M901.49,1208.19s-2.62,30.7,2.38,50,20.82,48.68,20.82,48.68,28.93,32.31,47.07,44.87,92.34,66.82,92.34,66.82l43.41-130.8s-11.57-66.21-20.74-71S901.49,1208.19,901.49,1208.19Z" fill="#003c5c"/><path d="M1068.46,717.75c-2.38,1.63-34,23.52-53.69,32.9s-47.28,24.53-63.64,40.95-52.45,55.31-58.23,74.84-13,40.09-12.36,55.44,7.57,35.66,7.57,35.66,0,38.49,8.13,61,8.57,30.5,8.57,30.5,5.79,89.48,8.57,111c0,0,2.2,3.09.31,8.38s-8.88,21-8.88,21-18.69,52.74,31.56,61.17,68.78,6.77,113.07-4,81.2-16.35,81.2-16.35l59-147.18-1.74-166.93Z" fill="#fac65f"/><path d="M1314.72,923.08l74.59,164.43L1278.1,1100.1l-49.73-92.73s39.48-78.58,53.44-78.17S1314.72,923.08,1314.72,923.08Z" fill="#deab58"/><path d="M1282.41,936.24s23.64-6,32.31-13.16,8.57-183.42,3.79-194.38-24-38.88-28.42-40.57-13.45-10.17-21.59-11.39,1.3,53.95,1.3,53.95Z" fill="#eab75c"/><path d="M1291,753.25l-8.57,183s-6.28,12.41-15.55,32.46-13.54,46.82-13.54,46.82-9.88,43.93-11.1,51.9,2,33.2,0,47.18c-1.72,12.12-55.14-16.45-69.47-24.4l-3.5-2s5.68-17.2,4.88-27.51,12-27.23,13-43.39a265.08,265.08,0,0,0,0-31.42s-1.94-10.61-3.14-33.81,3.14-33,3.14-33-.15-.65-.39-2.47c-.91-6.93-3.14-30.91-3.5-100.51-.44-88,56.75-142.56,56.75-142.56a49.05,49.05,0,0,1,28.52,3C1281.86,699.87,1289,725.55,1291,753.25Z" fill="#fac65f"/><path d="M1244.28,811.27s-16.71,17.36-19.1,22.94-34.57,61-34.57,61L1213,824s27.77-23.74,29.37-20.94A24.24,24.24,0,0,1,1244.28,811.27Z" fill="#eab75c"/><path d="M1175.46,904.37l11.66,14.89s9.61-40.17,14-53.69,21.25-44.87,22.78-46.37,5.06-1.24,7.34-4.31l2.29-3.06s7.24-1.24,10.77-.63,7.39-26.71,7.39-26.71S1244.81,759,1240,759.81s-23.72,15.7-23.72,15.7l-27.36,32.62s-10.66,39.53-12.07,67.89Z" fill="#ffe495"/><path d="M1929,2117.51c1.19,1,8.28,4.59,9.27,7.78s1.63,24.13,1.63,24.13a64.6,64.6,0,0,1-20.14,13.76c-12.07,5.09-22.24,9.08-31.42,9.76s-35.91-9.08-35.91-9.08l-19.64-8.28-14.37-18.24-22.43-.41-28.6-2.72s-34.31-9.48-46.87-16.66a69.76,69.76,0,0,1-19.15-15.67v-18s47.07-9.57,56-1.79,79.88,36.49,88.55,36.49S1929,2117.51,1929,2117.51Z"/><path d="M1850,2096.36c-.6-.2-49.26-36.9-45.06-40.28s39.48.8,42.3,1.63,37.89,11.76,41.08,13.76,13.76,7.58,12.77,7.78-19.36,8.61-26.73,10.49S1850,2096.36,1850,2096.36Z" fill="#ccc"/><path d="M1917.69,2062.76a58.83,58.83,0,0,1,10.33,26.62c2.08,16.16,2.83,31.87,2.83,31.87a11.39,11.39,0,0,1-3.25,6.18c-2.85,2.68-25.43,14.9-31.79,16.92s-17,1.43-24.4-.37-35.61-11.75-35.61-11.75l-31.19-5.91s-43.42-5.17-55-10.46-34.16-16.27-34.16-16.27l-13-31.71,14.15-26.71,17.11-5.27a61.22,61.22,0,0,1,21.77-1.94,249.2,249.2,0,0,1,28.34,5.68l30.6,18.87s9,12,15.55,17,9.19,8.62,17.72,9.76,21.8-3.25,21.8-3.25l23.23-6.64s12.8-6,18-8.87S1917.69,2062.76,1917.69,2062.76Z" fill="#131313"/><path d="M1800.57,2056s78.09,24.16,109.9,19.15c0,0,15.75-5.19,16-7.39s-1.81-19-1.81-19l-88.75-62.52-19.23-6Z" fill="#002d43"/><path d="M1515.46,2170.68l-2.36.94s-5.56,6-4.88,13.8,1.79,14.14,1.79,14.14.37,4,6.13,11.39,11.75,13.68,11.75,13.68,6.95,7.48,11.75,10.4,17.2,10.1,17.2,10.1,16.27,8.44,27.45,10.09,38.22.68,38.22.68,14.17,16.16,18.35,17.65,22.55,7.08,23,7.08,22.14,6,35,4.28,41-16.42,48.81-24.55c0,0,4.23-3.63,4.88-5.61a45.15,45.15,0,0,0,.49-11.81c-.44-1.45-2.34-14.27-2.34-14.27s-8.13-8.48-13.16-7.63S1515.46,2170.68,1515.46,2170.68Z"/><path d="M1698.06,2260.25c-.52.18-9.66.26-24.4-2.88-7.68-1.63-16.72-5.35-27.23-7.89a319.39,319.39,0,0,0-53.69-8.57,168.44,168.44,0,0,1-37.42-11.39c-18.55-8.13-33.51-22.34-39.48-33.9a38.87,38.87,0,0,1-1.81-27.12c3.25-9.18,13.16-17.9,13.16-17.9s16.27-12,28.93-14.07,18.74-1.48,18.74-1.48,9.48,1.79,13.57,3.09,29.28,12.06,29.28,12.06l97.43,19h1.24s5.38-.75,7.78,3.51,10.05,17.9,12.74,27.85,4.64,17,4.64,17l1.2,11.39s-6,11.29-15,16.82A173.9,173.9,0,0,1,1698.06,2260.25Z" fill="#131313"/><path d="M1612.34,2167.67c-2.25-.26-4,0-3.25,3.55,0,0,2.85,9.86,4.44,12.1s10.82,11.39,14,13.28,18.12,9.61,20.73,10.22,18.11-2.49,20.16-3,26-14,26.79-15.93-62.9-15.72-63.27-15.78Z" fill="#ccc"/><path d="M1609.06,2168.32s36.34,32.31,74.14,24.24,33-20.06,33-20.06,1.19-80.56.2-110.48,6.59-119.12,7-148.32-11-88.62-11-88.62l-126.28-90.21s-16.66,26-12.27,49.91,14.76,111.69,14.76,111.69Z" fill="#002d43"/><path d="M2026.09,2290.5a23.77,23.77,0,0,1-1.27,6.13,10.35,10.35,0,0,1-6.51,4.34s-.34-18.07-.29-32.26c0-9.06.21-16.51.73-16.72,1.35-.54,7.47,9.27,7.47,9.27v9.94S2026.29,2287.44,2026.09,2290.5Z" fill="#c41727"/><path d="M2026.21,2261.26v.7a21.72,21.72,0,0,1-5.09,6.88l-3.11-.13c0-9.06.21-16.51.73-16.72C2020.09,2251.45,2026.21,2261.26,2026.21,2261.26Z" fill="#b3121d"/><path d="M1770.13,2409.23v30.91c0,5.12-6.43,8.56-6.43,8.56a33.38,33.38,0,0,1-21.15,2c-11.39-2.85-12.19-10.2-12.19-10.2v-25.25s.1-3.25.34-6.2v-.72c.31-3.14,5.58-7.74,5.58-7.74s8,.26,8.75.23,15.59.18,18.92.26S1770.13,2409.23,1770.13,2409.23Z" fill="#c41727"/><path d="M1770.13,2409.23v2a22.13,22.13,0,0,1-12.12,8.56,47.42,47.42,0,0,1-19-1.43c-4.56-1.46-7-5.53-8.13-9.26v-.72c.31-3.14,5.58-7.74,5.58-7.74s8,.26,8.75.23,15.59.18,18.92.26S1770.13,2409.23,1770.13,2409.23Z" fill="#b3121d"/><path d="M1786.81,1972.86l-51.38,428.7s-1.81,8.13,8.38,9.88,14.3.29,17.24-1.72a8.52,8.52,0,0,0,4.51-6.28c.83-3.25,18.66-136,18.66-136l40.14-277.68Z" fill="#303030"/><path d="M2277.33,2437.7s-2,10.84-16.94,11.29-19.15-4.88-19.15-4.88a9.65,9.65,0,0,1-3.6-6.13v-31.56s3.74-10,7.19-11.21,26.18,3.74,26.18,3.74h1.63s4.49,6.21,4.64,7.66v1.11C2277.46,2413.23,2277.33,2437.7,2277.33,2437.7Z" fill="#c41727"/><path d="M2277.36,2407.57a14.11,14.11,0,0,1-6.13,7s-8.44,4.88-21.15,2.39c-8.8-1.63-11.5-7-12.35-10.15v-.47s3.74-10,7.19-11.21,26.18,3.74,26.18,3.74h1.63s4.49,6.21,4.64,7.66A9.24,9.24,0,0,0,2277.36,2407.57Z" fill="#b3121d"/><path d="M2241.85,2399.69a8,8,0,0,0,4.88,7.34c5.06,2.28,3.94,2.13,8.46,2.46a32.54,32.54,0,0,0,8.79-.67s6.17-1.87,7.48-4a12.63,12.63,0,0,0,1.3-5.5l-52.39-430-37,19.9Z" fill="#303030"/><path d="M2022.06,2530.31s-3.09,9.76-20.55,10.57-19.75-11.39-19.75-11.39v-30.72l5.27-8,27.2-2.51,7.32,10.53v.93Z" fill="#c41727"/><path d="M2021.57,2499.63a12.92,12.92,0,0,1-1.77,3.25c-3.76,4.64-9.5,6.8-20.43,7s-15.7-7-15.7-7l-1.9-3v-1.29l5.27-8,27.2-2.51,7.32,10.53Z" fill="#b3121d"/><path d="M1984.87,2067.08l2.18,427s-.39,3,3.89,5.29,13,2.1,13,2.1,8.88-1.63,10.38-3.74a9,9,0,0,0,1.63-3.14l8-435.27Z" fill="#303030"/><path d="M2322.49,1919.71a3.37,3.37,0,0,1-.33.8c-2.25,3.73-24.4,15.7-24.4,15.7L2201.29,1991,2064,2070.33s-10.17,5.08-39.34,22.43-43.08,0-43.08,0-273.89-158.34-282.48-162.09a30.91,30.91,0,0,1-12.43-9.21c-9.37-21.33,2.28-39.79,11.39-48.14,3.12-2.86,14.28-9.16,14.28-9.16l30.18-19.36,445.93-42.92,51,30.23s60,34.39,67.16,37.87,14.37,21.65,14.37,21.65S2324.06,1914.15,2322.49,1919.71Z" fill="#c41727"/><path d="M2322.49,1919.71c-3.25-15.18-8.26-36.07-11.24-40.35-4.78-6.88-56.55-26.18-56.55-26.18L1747.89,1855l-35.56,9.19,30.18-19.36,445.93-42.92,51,30.23s60,34.39,67.16,37.87,14.37,21.65,14.37,21.65S2324.06,1914.15,2322.49,1919.71Z" fill="#a91220"/><path d="M1511.18,1666.72l-.7,407.26s.49,11.23,14.4,15.26a54.65,54.65,0,0,0,25.59,1.2s17.57-3.74,18.32-14.37-1-413.94-1-413.94Z" fill="#3d130c"/><path d="M1748.51,1848.41s-21.54,7-16,16.76S1992,2016.74,1992,2016.74s12.17,10.36,40.49-10.77,130.62-76.19,130.62-76.19l109.9-62.81s10.57-8.57-10-18.55-69.79-40.3-69.79-40.3Z" fill="#b3121d"/><path d="M2203.06,1793a169.34,169.34,0,0,1-10.51,28.45c-2.38,5.08-4.12,8.35-4.12,8.35s-13.6,16.61-41.88,32.54a61.38,61.38,0,0,1-28.89,7.79H2113a73.21,73.21,0,0,1-23.46-5h0s19.85-69.18,27.4-93.11a49.75,49.75,0,0,1,2.81-8c1.2,0,83.26-41.29,83.26-41.29s4.49,29.53,4.88,35.91S2207.44,1775.41,2203.06,1793Z" fill="#002d43"/><path d="M2125.92,1845.4c-2,6.1-7.52,16.76-12.38,24.53a73.49,73.49,0,0,1-24-5.06h0s19.85-69.18,27.4-93.11c8.13,2.57,4.88,2.75,4.88,2.75C2122.27,1775.68,2132.29,1825.65,2125.92,1845.4Z" fill="#002938"/><path d="M2121,1773.41c.39,1.2,6.07,51.67-.31,71.4s-31.11,48.81-38.69,53.69c0,0-24.58,14.85-33.71,18.16s-28.88,6.13-28.88,6.13-32.31,4.33-50.86,2.08a431.85,431.85,0,0,1-43.08-8.38L1872.22,1897l-77.33-27.82L1731,1847.45l-67.45-28.57-47.18-16.9a67.55,67.55,0,0,1-26-35.3c-7.34-23.79-4.34-31.87-4.34-31.87l15-18.69s11.68-10.77,19.31-14.64,33.27-10.2,33.27-10.2l56-3.53,34-6.18,78.09.89s39.92,6.65,43.13,9.27S2121,1773.41,2121,1773.41Z" fill="#002d43"/><path d="M1885.9,1194.85c-191.7-110.42-501.57-110.42-692,0-64.51,37.42-107,82.65-127.66,130.43l-11-20.92c-4.34,19.93-6.87,47-5.19,90.41l2.77,17.75h0c7.55,66.33,55.31,131.48,143.39,182.21,191.71,110.4,501.55,110.4,692,0S2077.63,1305.25,1885.9,1194.85Z" fill="#4b1a0f"/><path d="M1888.15,1539c-190.46,110.4-500.32,110.4-692,0-167.44-96.41-189.42-245.14-65.47-354.81a359.74,359.74,0,0,1,30.26-23.92q15.39-10.92,32.94-21.15c190.48-110.4,500.32-110.4,692,0S2078.64,1428.6,1888.15,1539Z" fill="#bd6940"/><path d="M1445.77,1513.12s-32.31-3.53-24.53-21.26,14.64-25.8,14.64-25.8,10.93-4.39,26.58-10.35c11.83-4.49,26.34-11.66,41.1-8.41,34.29,7.58,74.59,27.27,75.78,27s22.78,3.25,29.12,23.2,37.89,30.19,37.89,30.19l147.48,58s-23.36,45.08-37.79,39.89-124.85-70.17-137.21-73.78-116.08-20.35-117.28-21.15S1445.77,1513.12,1445.77,1513.12Z" fill="#b0603d"/><path d="M1680.12,1265.17c-7.84,27.2-129,46.33-202.79,59.46-69.65,12.38-319-125-346.67-140.42a359.74,359.74,0,0,1,30.26-23.92c92.86,5.84,283.08,32,334.11,24.29,71-10.8,164.53,31.42,164.53,31.42S1688,1238,1680.12,1265.17Z" fill="#b0603d"/><polygon points="1657.34 1273.98 1930.41 1367.32 1844.55 1265.66 1657.34 1200.04 1657.34 1273.98" fill="#b0603d"/><path d="M1873.86,1327.85l-63-33.81-94.59-57s-14.64-7.87-19.52-10.07a59.36,59.36,0,0,0-30.16-3.35c-13.47,2-18,0-18,0l-20.34-5.74-1-.39-16.27-6.51,11.39-87.12,16.87,3.42,5,1a107.77,107.77,0,0,1,11.88,3.25c5.55,1.94,17.49,9.55,17.49,9.55l12,8.7,19.52,14.64a151.42,151.42,0,0,0,18.09,11.13c7.94,3.82,38.75,17.2,38.75,17.2l74.5,26.78,60.34,20.34s6.51-.15,13,21.56S1873.86,1327.85,1873.86,1327.85Z" fill="#fdbaae"/><path d="M1647,1189a67.81,67.81,0,0,0-19.33-14.15l-1.2,18.55.83,24.09-16.27-6.51,11.39-87.12,16.87,3.42-4.49,20.58s1.81,15.16,6,22.5S1654.77,1197.81,1647,1189Z" fill="#f2b2a6"/><path d="M2202.85,1725.43c-2,9.57-111.69,80.58-132,85.75s-96.93,31.12-122.46,28.32-57.84-41.88-57.84-41.88L1864,1699.84l-16.27-59.77-1.32-111.95-2.26-192.27s34-13.7,46.82-39.34,48.11-22.78,48.11-22.78l115.28-59.23,18.87,2.26,76.33,3.07,30.36,25.44s5.38,12.56,1,44.87-7.79,68.8-7.79,68.8-15.36,157-9.76,196.85,28.32,114.48,28.32,114.48S2204.85,1715.78,2202.85,1725.43Z" fill="#004a9b"/><path d="M1912.21,1432s-6.3,174.81-22.45,230.11c-4.16,14.24-13.76,26.83-25.72,37.63L1847.77,1640,1846.45,1528c10.75-40.28,24.18-91.66,28-96C1880.78,1424.85,1912.21,1432,1912.21,1432Z" fill="#004a9b"/><path d="M1914,1373.32c-.36,12.92-3.89,110.63-3.89,110.63l-19.95,74.59-6.51,17.57-10.41,28.31s-13.68,36.41-18.68,47.8-16.27,23.88-16.27,23.88a46.06,46.06,0,0,1-9.18,6.78c-4,1.89-16.56,3.84-16.56,3.84-32.1,4.69-60.19-10.57-60.19-10.57l-45.1-26.19-108-68.91s-21.54-14.15-28.23-17a34.16,34.16,0,0,0-11.39-2.85s-8-2.18-10.67-2.49c-4.3-.47-13,.88-17.26.16a70.14,70.14,0,0,1-8.87-3.25l-24.94-10.17-17.24-7.16s.55-14.07.44-15.06,9.19-24,9.19-24,11.57-14,12.06-14.4,11.47-21.15,11.47-21.15l11-7.39,6.51,3.09,7.17,3.6,16.61,7.78s12.1,3.74,17.2,4.78,24.4,8.38,24.4,8.38a46.14,46.14,0,0,1,5.08,11.06c1.06,4.64,0,13.32,0,13.32l4.88,4.88,10.31,5.19s23.93,14,24.53,14.15,45.16,18.76,45.16,18.76l58.57,21.83,15.72,6.26,12.19,4.88,1.42.55,1.5.6.6-11.81.42-5.4,1.63-21.15-.16-8.75s-.52-25.43-.29-32-2.1-23.72-2.1-23.72-.75-4.1-2.54-13.45-2.86-24.66-2.86-24.66-.75-6.88,1.79-20.5,8.52-24.68,11.39-31.42,12.85-17,21-26.62,39.5-30.23,39.5-30.23C1862.78,1333.48,1914.41,1356.86,1914,1373.32Z" fill="#ffc7b7"/><path d="M1789.35,1644.22s-19.83-42.84-28.44-64.78l12.19,4.88c.91.86,1.45,1.14,1.42.55l1.5.6.6-11.81.42-5.4s6.69,5,6.83,5.4,1.87,35.22,1.87,35.22Z" fill="#f2b2a6"/><path d="M1524.73,1456.39s-7.47,13.86-17.75,19.75c-1.5.86-8.31-.76-15.44-2.86-7.65-2.25-15.67-5.06-17.9-6l-.46-.2a29,29,0,0,1-5.43-3.84s-2.8-2.2-2.39-3.34l.18-.49a8,8,0,0,1,4.52-4.88,43,43,0,0,1,7.65-2.59h.16l4.62-1.55,13,.28s6.61-1.46,11.18.16S1524.73,1456.39,1524.73,1456.39Z" fill="#ffc7b7"/><path d="M1182.68,1043c-2.54,4.88-8.88,40.88-10,47.29l-3.5-2s5.68-17.2,4.88-27.51,12-27.23,13-43.39a265.08,265.08,0,0,0,0-31.42s-1.94-10.61-3.14-33.81,3.14-33,3.14-33-.15-.65-.39-2.47l1.14-.59s.41,52.06,3.25,75S1185.48,1037.65,1182.68,1043Z" fill="#cda050"/><path d="M1506.84,1474.29l-15.29-1c-7.65-2.25-15.67-5.06-17.9-6a13.31,13.31,0,0,1,6.08-.54,102.35,102.35,0,0,1,11.91,3.53,65.07,65.07,0,0,0,6.23,2.6C1498.36,1472.84,1506.84,1474.29,1506.84,1474.29Z" fill="#f2b2a6"/><path d="M1477.83,1452c-1.06,1.14-2.41,2.6-2.9,3.25a16.09,16.09,0,0,1-5.43,3.84,25.81,25.81,0,0,1-4,.46,8,8,0,0,1,4.52-4.88,43,43,0,0,1,7.65-2.59Z" fill="#ffb3af"/><path d="M1495.5,1497.93a55.32,55.32,0,0,1-10-.44,64.8,64.8,0,0,1-24.63-8.62l-4.88-2.78h0l-2.13-1.2-5.24-1.63s-9.22-3-12-5.29c-2.34-1.87-3.51-3.68-3.25-5.87a6.39,6.39,0,0,1,.31-1.35c.94-2.85,6.51-5.89,6.51-5.89a49.6,49.6,0,0,1,7.66,0c1.29.1,2.67.26,4.05.5,6,1,7.84.39,10.43,1.14a58.9,58.9,0,0,0,6.83,1.3,51.17,51.17,0,0,1,14.56,1,129.68,129.68,0,0,1,12.71,4.34s9.13.29,12.35.75S1514.86,1497,1495.5,1497.93Z" fill="#ffc7b7"/><path d="M1485.54,1497.49a64.8,64.8,0,0,1-24.63-8.62l-4.88-2.78c3.12-.29,12.69-1.09,15.24.1,3.07,1.43,19.38,4.26,21.39,7.19C1493.66,1494.8,1489.74,1496.33,1485.54,1497.49Z" fill="#f2b2a6"/><path d="M1497.35,1502.42c-3.69,6.23-6.08,15.06-10.48,15.26a9,9,0,0,1-6.8-2.44s-6.2-3.43-8-4-8.13-2.42-8.13-2.42l-14.43-3.25-9.16-2.07a25.27,25.27,0,0,1-8.3-2.28,55.31,55.31,0,0,1-7.55-4.15s-4.16-2.88-3.25-5.12h0c.94-2.23,7.29-6.61,7.29-6.61s1.63-.78,6.83-.1c.63.08,1.32.2,2.07.33,6.88,1.19,18.74,1.76,18.74,1.76s9.94-1.07,11.84-.52l9.61,2.83a24.55,24.55,0,0,0,9.92,1.85C1493.48,1491.35,1501,1496.19,1497.35,1502.42Z" fill="#ffc7b7"/><path d="M1435.35,1485.15c-.29,3.25-4.31,6.67-6.9,7.48-1.89.59-5.06-.13-7.22-.78.94-2.23,7.29-6.61,7.29-6.61S1430.13,1484.47,1435.35,1485.15Z" fill="#ffb3af"/><path d="M1833.79,1016.32l-7,10-2.85,6.18-2.49,7.43-2,8.13-3,21.3-1.35,14.32a48.43,48.43,0,0,0,3.79,12.41,104.11,104.11,0,0,1,5.12,14,21.49,21.49,0,0,1,2.67,10.36,23.3,23.3,0,0,0-.21,5,41.06,41.06,0,0,0,1.42,8.13s9.6,23.72,15.37,36.88a140.74,140.74,0,0,0,13.71,23.92,162.14,162.14,0,0,0,16.76,13.54,130.15,130.15,0,0,1,12.49,9.42s7.4,7,9,13.47a149.32,149.32,0,0,1,2.55,16.27l1,18.47s70.44,1.11,88.34-8.49c13.67-7.27,37.91-55.15,37.91-55.15s-7.78-7.78-11.27-14.64-7-19.34-7-19.34l-1.2-10.82-19.95-9.92Z" fill="#ffc7b7"/><path d="M1551.17,1213.33c-.15,0-6.34,1.63-9.48-1.63a7.47,7.47,0,0,1-2-5.25,7.56,7.56,0,0,1,.31-2.21l9.48-5.19.16,1.27Z" fill="#fdbaae"/><path d="M1549.58,1200.37l-6.67,5.43-3.25.7a7.56,7.56,0,0,1,.31-2.21l9.48-5.19Z" fill="#f2b2a6"/><path d="M1549.41,1199.28l-7,5.91s-4.72,2-7.06.62a2.39,2.39,0,0,1-1-1.29c-.91-2.47,0-7.06,0-7.06l.11-.41,1.79-6.85,2.88-8.38s2.39-5,5.92-4.2S1549.41,1199.28,1549.41,1199.28Z" fill="#fdbaae"/><path d="M1535.13,1201.18a14.77,14.77,0,0,1-.76,3.25c-.91-2.47,0-7.06,0-7.06l.11-.41A6.83,6.83,0,0,1,1535.13,1201.18Z" fill="#ffb3af"/><path d="M1543.39,1150.63l-.31,18.56s-4.44,7.73-7.43,7.84-3.43-.37-4.23-1.76c-.41-.72-1.5-2.88-2.47-4.88l-1.74-3.53h0s-3-5.24-.89-9.18a12.33,12.33,0,0,1,9.48-6.13C1539.15,1151.14,1543.39,1150.63,1543.39,1150.63Z" fill="#fdbaae"/><path d="M1529.34,1167.72a20,20,0,0,1-.39,2.73l-1.74-3.53c.24-2.91.55-5.65.86-5.66C1528.74,1161.21,1529.48,1165.55,1529.34,1167.72Z" fill="#ffb3af"/><path d="M1541.49,1158.26c-.15-.11-6.72-3.58-6.72-3.58s-.54-1.11.21-.85,10.17,4.43,10.17,4.43Z" fill="#f2b2a6"/><path d="M1535.86,1131.19s-9,4.54-12.07,10.53.89,9.76,2.25,10.22,3.74.85,8.23-.44a35.61,35.61,0,0,1,8.82-1.3Z" fill="#fdbaae"/><path d="M1627.59,1099.81l-.93,11.24-1.4,24.68-1.43,23.23-1,15.8-1.35,25.27-.29,11v.34l.29,18a41.88,41.88,0,0,1-4.44,6.93,49.39,49.39,0,0,1-9.32,6.08,66.5,66.5,0,0,1-18.79,5,70.25,70.25,0,0,1-17.49-.75,51.46,51.46,0,0,1-10.14-3.09,80.89,80.89,0,0,1-7.08-4.7,12.32,12.32,0,0,1-3.94-4.25,14.15,14.15,0,0,1-1.63-5.66v-5.87l-.33-8v-.23l-.59-6.39-3.25-20.4-3.6-22.09-.44-2.67-3.74-21.25-6.51-40Z" fill="#ff9f00"/><path d="M1527.29,1051.26l2.6,45.78s0,6.18,1.35,8.87a18.19,18.19,0,0,0,3.25,4.57,43.21,43.21,0,0,0,6.15,5.21c1.81.88,8.85,5,16.27,6.18s20.32,3.09,32.23,1.2,22.58-6.51,26.13-9a41,41,0,0,0,7.39-6.23c1-1.35,4.52-6.1,4.88-8s-.59-20.71-.59-20.71l-.89-21.7-.23-8.13s-.75-5.91-3.56-9.13a42.14,42.14,0,0,0-10.54-8.23,71.81,71.81,0,0,0-11.81-4.29,104,104,0,0,0-17.42-2c-3.6-.11-12,.18-15.63.55a90.62,90.62,0,0,0-16.56,4.12,57.17,57.17,0,0,0-12.58,6.62,58.21,58.21,0,0,0-7.37,7,26,26,0,0,0-2.42,4.38Z" fill="#dbdbdb"/><path d="M1116.81,856s-11.91,4.15-30.91,4S1070,854.7,1070,854.7s-19.25-29.69-13.67-48.24S1044,765.6,1044,765.6s4.15-19.52,4.59-20.94c1-3.25,15.23-28.37,18.68-27.27l34.16,70.15Z" fill="#ffe495"/><path d="M1371.71,1233s-70.75-11-115.62-21.49-120.26-30.8-120.26-30.8-44.89-23.64-90.65-73.6-105-101.13-105-101.13l-41.29-36.2s9.88-22.43,53.26-39.48,89.15-9.88,92.73-7.17,50.27,61.63,50.27,61.63l66.21,87.66,39,25.72,107.7,42.79,24.94,11.76,40,9.63Z" fill="#ffd863"/><path d="M1390,1153.24a39.48,39.48,0,0,0,11.18-7.87c5-5.19,10.87-19.85,10.87-19.85s5.5-11,8.72-14.56,11.52-10.85,11.52-10.85l-3.12,68.09-39.86-12Z" fill="#ffc7b7"/><path d="M1428.55,1112.7l.75,67.86s45.55,33,64.33,16.85,19.52-22.17,19.52-22.17l11.86-51.49Z" fill="#ff9700"/><path d="M1428.55,1112.7s1.81-23.48,2.47-30.34,2.31-20.16,2.31-20.16a45.68,45.68,0,0,1,3.84-7.24c2.1-3,10.23-8.23,10.23-8.23s16.53-8.62,34.47-6.61,25.3,5.22,35.79,12.2a29,29,0,0,1,12.36,20c.5,2.44-.89,15.46-.89,15.46s-2,22.14-2,22.52-2.16,13.45-2.16,13.45a30,30,0,0,1-10.17,11.75c-7.19,4.78-19.15,8.13-19.15,8.13s-14.8,1.94-21.91.75-17.36-3.14-24.68-7.34-14.22-9.76-17.21-15A24.91,24.91,0,0,1,1428.55,1112.7Z" fill="#e6e6e6"/><path d="M1509.07,1242.42a23.46,23.46,0,0,1-3.81,3.55,20.15,20.15,0,0,0-2.83,1.16,16.05,16.05,0,0,0-2.07,1.5,60.58,60.58,0,0,1-9.76,5.65,68.06,68.06,0,0,0-12.17,2.08,78.46,78.46,0,0,1-8.23,2.25l-11.81.29s-7.39.15-11.39,0a10.88,10.88,0,0,1-6.72-2.85c.49-7.84,13.41-10.77,13.41-10.77l50.64-10.85s2.34,1.77,3.94,3.12a9.28,9.28,0,0,1,1.32,1.25A3.25,3.25,0,0,1,1509.07,1242.42Z" fill="#ffc7b7"/><path d="M1509.07,1242.42a23.46,23.46,0,0,1-3.81,3.55,20.15,20.15,0,0,0-2.83,1.16,8.13,8.13,0,0,1,5.84-9.58,9.28,9.28,0,0,1,1.32,1.25A3.25,3.25,0,0,1,1509.07,1242.42Z" fill="#ffb3af"/><path d="M1447.95,1251a121.46,121.46,0,0,0,17-2,123.4,123.4,0,0,1,17.65-2s3.68.24,10.93-4.31,15.26-9.86,15.26-9.86l-16.27,5.89-21.77,3.82-17.39,4.46Z" fill="#f2b2a6"/><path d="M1518.8,1212l-1.38,4.6-1.82,4-.49,1.06a86.29,86.29,0,0,1-3,8.13c-1.4,3-9.18,6.34-9.18,6.34l-9.68,5.08-5.09,3a16.27,16.27,0,0,1-7.5,2.2l-10.44.44a129.25,129.25,0,0,0-14.76,2.68c-9,2.1-7.39,2.29-13.16-.7s3-14.48,3-14.48l4.88-1.63,57.59-19.83,8.57-6.88a1.82,1.82,0,0,1,2,.6,1.41,1.41,0,0,1,.21.47,6.08,6.08,0,0,1,.21,1.11A28.36,28.36,0,0,1,1518.8,1212Z" fill="#ffc7b7"/><path d="M1518.8,1212l-1.38,4.6-1.82,4-.47-.49s-.1-5.4,1.45-8.28c.65-1.22,1.46-2.6,2.2-3.79A28.36,28.36,0,0,1,1518.8,1212Z" fill="#ffb3af"/><path d="M1518.5,1207l-2.59,3.81-4.54,3.58c-.11.13-8.49,5.5-8.49,5.5s-3.89,3.47-8.3,7-11.39,3.14-11.39,3.14a94,94,0,0,0-18.94,2.68,52.06,52.06,0,0,1-15.55,1.94l1.33-2,57.59-19.83,8.57-6.88a1.82,1.82,0,0,1,2,.6A1.41,1.41,0,0,1,1518.5,1207Z" fill="#f2b2a6"/><path d="M1523,1188.23c-.23.81-.54,1.71-.86,2.6-.18.49-.37,1-.57,1.46-.81,2-1.63,3.66-1.63,3.66v.08c0,.62-.16,5.08-.39,6.51a31.4,31.4,0,0,1-2.93,5.78,9.08,9.08,0,0,1-2.7,2.86l-12.87,8.87a106.84,106.84,0,0,1-9.44,7.86c-3.14,2-12.41-.23-25.57,3.51s-18.84,3.25-18.84,3.25c-4.88-.65-7.16-2.57-7.73-5.21-1-4.44,2.86-10.87,6.51-16.42a12.59,12.59,0,0,1,3.9-3.25l.36-.21a26.59,26.59,0,0,0,3.81,0s4-3.25,12.17-1.63,15.46,3,20.65-.44,17.41-7.58,17.41-7.58a104.87,104.87,0,0,0,10.46-6.51c.73-.52,1.42-1,2.07-1.4C1519.46,1190.36,1521.45,1189.31,1523,1188.23Z" fill="#ffc7b7"/><path d="M1523,1188.23c-.23.81-.54,1.71-.86,2.6-.18.49-.37,1-.57,1.46-.81,2-1.63,3.66-1.63,3.66v.08c-.78-.57-.46-2.23,0-3.86a23.08,23.08,0,0,0,.49-2.33,2.59,2.59,0,0,0,0-1.19c2.51-1.63,1.19.41,2.41-.29Z" fill="#ffb3af"/><path d="M1192.36,805.8c-.6.89-4.59,6.28-8.13,20.65a349.5,349.5,0,0,0-7.58,51.95c-.91,14.77-1.63,25.35-1.63,25.35s-18.55-17.07-23.54-20.86S1129,866.94,1129,866.94L1116.71,856l-.73-2-6.8-10.57-2.88-4.49a90.33,90.33,0,0,1-3.58-20.24c-.31-9.58-.88-19-4.77-23.7s-10-11.53-10-11.53a141.21,141.21,0,0,1-9.27-12.71,133,133,0,0,1-4.88-13.45l-7-9.5s-3.25-12-2.93-14.74,1-9.94,1-9.94l.46-2.47,4.88-8.13L1174,791.83Z" fill="#fdbaae"/><path d="M1171.42,791.6c-29.77,38.54-26.92,36.87-26.92,36.87l27.66-27.23Z" fill="#f2b2a6"/><path d="M1108.3,748c-.52,1.72,6.34,36.26,32.11,47.86,9.76,4.43,19.34,9.22,26.92,12.22a85.92,85.92,0,0,0,26.92,5.65c8.13.8,23.56-2.9,28.52-10.48s12.77-25.93,12.77-25.93a15.37,15.37,0,0,0,0-17.57c-6.2-9.76-52.47,4.2-54.26,3.61S1108.3,748,1108.3,748Z" fill="#f2b2a6"/><path d="M1236.43,761.34c-7.17,4-20.14,14.17-20.14,14.17l-27.36,32.62s-.5,1.85-1.3,5c2.68.31,4.88.46,6.64.62,8.13.8,23.56-2.9,28.52-10.48s12.77-25.93,12.77-25.93A15.24,15.24,0,0,0,1236.43,761.34Z" fill="#e6c482"/><path d="M1269.8,650.48s0,18.9-.7,20.81a9.63,9.63,0,0,1-2.81,4.38c-1.63,1.53-5.68,4.88-5.55,5.42a5.47,5.47,0,0,1,0,1.3c-.13,1.48-.42,3.68-.42,3.68l-3.87,8.67-3.47,5-1.63,2.36-1.12,7.06-1.53,6.38-4.16,15.15-2.77,12.09-.89,4s5.42,9.88,4.38,13.76a20.32,20.32,0,0,1-3.48,6.85,7.32,7.32,0,0,1-5.35,2.65l-.29.33a11,11,0,0,1-.6,3.84,28.75,28.75,0,0,1-6.34,7.32c-2.55,1.63-2.85,2.31-2.85,2.31l-1.29,3.55a51.82,51.82,0,0,1-2.47,11.16,26.44,26.44,0,0,1-7.17,8.62,37.42,37.42,0,0,1-23.65,3.25c-13.54-2.31-33.29-11.58-33.29-11.58s-18.17-10.17-21.62-12.56a93.93,93.93,0,0,1-12.64-10.7c-2.08-2.54-20.56-32.54-20.56-32.54l-4.75-5.06-28.28-25.7-4.2-3.82-6.34-9s-4.88-17.9-5.09-20.27a20.89,20.89,0,0,0-.89-4.33s-5.91-3-6.51-19.25-.5-20-.5-20V620.77a142.27,142.27,0,0,0,1.81-14.37c0-3.79,3.38-11.18,3.38-11.18s5-10,5.29-10.17a70.83,70.83,0,0,1,7.08-6.78c3.25-2.49,3.09-4.69,7-7.78s9.08-11.27,9.08-11.27A29.56,29.56,0,0,0,1092,548.17c4.38-7.68,14.35-11.66,14.35-11.66s15.76-6.08,31.92-1.81,19.64-.86,23.13-1.51,16.12-.93,25.25,5.81,12.41,9.94,16.46,12.41,9.65,5.47,17.49,15.94,7.34,10.4,11.23,12.79a23.62,23.62,0,0,1,8.13,8c1.48,2.62,14.64,20.5,14.64,20.5S1263.49,621,1265,626,1269.8,650.48,1269.8,650.48Z" fill="#ffc7b7"/><polygon points="1252.93 699.71 1251.3 702.07 1250.18 709.13 1248.65 715.51 1244.49 730.65 1241.72 742.76 1240.83 746.71 1239.62 744.4 1236.32 733.03 1233.1 724.55 1231.8 721.32 1231.72 719.71 1232.24 718.19 1233.02 716.86 1234.24 715.59 1235.77 714.24 1237.13 713.02 1242.92 708.35 1252.93 699.71" fill="#fdbaae"/><path d="M1269.8,650.48s0,18.9-.7,20.81a9.63,9.63,0,0,1-2.81,4.38c-1.63,1.53-5.68,4.88-5.55,5.42,0,.15-.55.44-1.42,1.06L1241,691.53s-13,11.21-25,13.45-18.55-6.43-24.4-3.74-31.64,6.93-40.22,6.7-19.15,15.78-24.94,22.11-8.77-.54-16.55-12.71S1091.64,704,1091.64,704s-10.31,4.05-21,8.13l-4.2-3.82-6.34-9s-4.88-17.9-5.09-20.27a20.89,20.89,0,0,0-.89-4.33s-5.91-3-6.51-19.25-.5-20-.5-20V620.77a142.27,142.27,0,0,0,1.81-14.37c0-3.79,3.38-11.18,3.38-11.18s5-10,5.29-10.17a70.83,70.83,0,0,1,7.08-6.78c3.25-2.49,3.09-4.69,7-7.78s9.08-11.27,9.08-11.27A29.56,29.56,0,0,0,1092,548.17c4.38-7.68,14.35-11.66,14.35-11.66s15.76-6.08,31.92-1.81,19.64-.86,23.13-1.51,16.12-.93,25.25,5.81,12.41,9.94,16.46,12.41,9.65,5.47,17.49,15.94,7.34,10.4,11.23,12.79a23.62,23.62,0,0,1,8.13,8c1.48,2.62,14.64,20.5,14.64,20.5S1263.49,621,1265,626,1269.8,650.48,1269.8,650.48Z" fill="#d0a052"/><path d="M1196.1,784.26s-.62-1.14,2.15-1a55.31,55.31,0,0,1,6.61.81s9.42,1.09,12.12.23,9.45-2.42,9.45-2.42l2.7-.37-.8.89-3.25,1.63a35.89,35.89,0,0,1-15.89,2.52A48,48,0,0,1,1196.1,784.26Z" fill="#ff9c9a"/><path d="M1098.88,737.91a26.61,26.61,0,0,0-7.19.54c-4.54.85-9.76-2.85-12.56-6.18a104.69,104.69,0,0,1-7.39-11.27l-3.09-6.88s-2.9-7.58-1.29-11.76a24.81,24.81,0,0,1,5.82-8s6-4,11.18-.94a75.42,75.42,0,0,1,10,7.43,17.41,17.41,0,0,1,1.89,7.53c.24,4.78,2.9,6.13,2.9,6.13S1104.61,728.47,1098.88,737.91Z" fill="#ffd3c5"/><path d="M1093.56,709.28a9.26,9.26,0,0,0-1.06-3.55,6.17,6.17,0,0,0-1.12-1.45,7.17,7.17,0,0,0-1.55-1c-2.2-1.22-4.38-2.49-6.51-3.74a9.88,9.88,0,0,0-7.08-1.11,4,4,0,0,0-.88.28,4.39,4.39,0,0,0-.86.36l-.81.44-.75.54-.37.28-.34.33-.67.63c-.42.47-.8,1-1.22,1.45.36-.52.7-1.06,1.09-1.55l.65-.7.33-.36.36-.31.75-.6.83-.49a5.24,5.24,0,0,1,.86-.41,5.11,5.11,0,0,1,.91-.33,8.82,8.82,0,0,1,3.86-.21,11.27,11.27,0,0,1,3.64,1.25c2.16,1.29,4.34,2.54,6.51,3.84a7.89,7.89,0,0,1,1.63,1.12,6.64,6.64,0,0,1,1.12,1.63A8.64,8.64,0,0,1,1093.56,709.28Z" fill="#f2b2a6"/><path d="M1072.74,707.94a18.53,18.53,0,0,0-1,4.07,6.51,6.51,0,0,0,0,2,3.26,3.26,0,0,0,.15.47,2.24,2.24,0,0,0,.23.44,5.81,5.81,0,0,0,.68.75c1,1,2.07,1.87,3.16,2.75s2.2,1.74,3.25,2.57h0c1,1.32,1.9,2.67,2.88,4a46.63,46.63,0,0,0,3.07,3.79,3.78,3.78,0,0,0,.85.73,4.31,4.31,0,0,0,1.14,0,13.34,13.34,0,0,0,2.38-.47,10.27,10.27,0,0,0,2.25-.89,3.53,3.53,0,0,0,1.63-1.72,3.38,3.38,0,0,1-1.63,1.87,9.76,9.76,0,0,1-2.25,1,13.47,13.47,0,0,1-2.42.57,4,4,0,0,1-1.32,0,3.25,3.25,0,0,1-.59-.37l-.46-.44a41.21,41.21,0,0,1-3.17-3.79c-1-1.32-2-2.62-2.91-4h0c-1.12-.85-2.23-1.72-3.25-2.62a32.22,32.22,0,0,1-3.12-2.85,7.16,7.16,0,0,1-.7-.85,2.07,2.07,0,0,1-.24-.5,2.2,2.2,0,0,1-.15-.54,6.79,6.79,0,0,1,0-2.15A17.33,17.33,0,0,1,1072.74,707.94Z" fill="#f2b2a6"/><path d="M1094.16,712.35c.15.11,2,1.06,1.9,2.85s-3.69,3.69-3.69,3.69a11.39,11.39,0,0,0,.63-3c0-1.12-2-3.51-2-3.51l-1.42-2.65s-3.89-1.63-5.37-.42-2.55,3.82-4.65,3.89-3.25-1.63-2.28-2.39a50.44,50.44,0,0,1,5.09-2.65s5.6-.23,6.05-.18a10.18,10.18,0,0,1,3.25.59c.63.46.89,1.81,1.2,2.25S1094.16,712.35,1094.16,712.35Z" fill="#f2b2a6"/><path d="M1196.1,784.26s7.32,7.11,13.54,7.26,10.15-.54,13-2.18c2-1.17,5.48-5,5.76-7,0,0-5.6,1.42-5.76,1.42a54,54,0,0,1-8,1.63,38.18,38.18,0,0,1-9.35-.72C1201,783.77,1196.85,783.37,1196.1,784.26Z" fill="#ffb3af"/><path d="M1209.56,756.73a8.44,8.44,0,0,0-1.63,2.8,4.26,4.26,0,0,0-.21,1.63,2.85,2.85,0,0,0,.49,1.45,5.55,5.55,0,0,0,2.54,1.82,20.89,20.89,0,0,0,3.11.94l3.25.85,3.17.88c2.11.57,4.23,1.16,6.34,1.77h0l3.35.6c1.12.21,3.86.42,5,.65-1,0-3.87-.28-5-.41l-3.37-.44h0c-2.13-.52-4.26-1.07-6.38-1.63l-3.25-.85-3.17-.88a23.85,23.85,0,0,1-3.17-1,6.59,6.59,0,0,1-1.46-.85,4.29,4.29,0,0,1-1.19-1.24,3.12,3.12,0,0,1-.49-1.63,4.36,4.36,0,0,1,.31-1.63A8.4,8.4,0,0,1,1209.56,756.73Z" fill="#f2b2a6"/><path d="M1239.64,744.42q-1-2.85-1.85-5.71c-.6-1.9-1.2-3.82-1.77-5.74h0l-2.21-5.42-2.1-5.47h0a4.31,4.31,0,0,1-.26-2.11,5.63,5.63,0,0,1,.6-2,8.67,8.67,0,0,1,1.19-1.63l.73-.72.8-.63h0c.76-.65,1.53-1.32,2.31-2l-2.16,2.11h0l-.73.67-.68.73a7.71,7.71,0,0,0-1.07,1.63,5.32,5.32,0,0,0-.49,1.85,4.05,4.05,0,0,0,.26,1.84h0l2.18,5.43,2.1,5.47h0c.57,1.92,1.07,3.86,1.63,5.79S1239.15,742.45,1239.64,744.42Z" fill="#f2b2a6"/><path d="M1525.14,1186.54c-1.9,1.9-4.38,3-8.31,5.58-.65.42-1.33.88-2.07,1.4a104.87,104.87,0,0,1-10.46,6.51s-12.17,4.08-17.36,7.53-12.46,2-20.65.44-12.17,1.63-12.17,1.63c-23.93,1.32-12.71-26-12.71-26s0,.37,5.38,1.63,18,2.81,22.78,3.56,13.52-.94,17.6-2,14.27-4.88,14.27-4.88a64.27,64.27,0,0,1,8.88-5.34,21.15,21.15,0,0,1,9.57-2.54s5.19.54,7.06,3.11a4.09,4.09,0,0,1,.42.73C1528.74,1181,1526.74,1184.95,1525.14,1186.54Z" fill="#ffc7b7"/><path d="M1525.14,1186.54c-1.9,1.9-4.38,3-8.31,5.58a15,15,0,0,1-.42-4.28c.41-3.6.75-5.73,4.54-7.83,2.29-1.27,4.57-2.33,6-3a4.09,4.09,0,0,1,.42.73C1528.74,1181,1526.74,1184.95,1525.14,1186.54Z" fill="#ffb3af"/><path d="M1523,1188.23c-.23.81-.54,1.71-.86,2.6l-19.93,12a109.72,109.72,0,0,0-13.45,6.88c-6.3,3.87-19.52,1.35-31.56,1.79a15.68,15.68,0,0,1-7.32-1.72l.36-.21a26.59,26.59,0,0,0,3.81,0s4-3.25,12.17-1.63,15.46,3,20.65-.44,17.42-7.52,17.42-7.52a104.87,104.87,0,0,0,10.46-6.51c.73-.52,1.42-1,2.07-1.4C1519.46,1190.36,1521.45,1189.31,1523,1188.23Z" fill="#f2b2a6"/><path d="M1523,1188.23c-.23.81-.54,1.71-.86,2.6l-2.23,1.35a23.08,23.08,0,0,0,.49-2.33c.89-.54,1.63-1,2.39-1.48Z" fill="#ffaaa7"/><path d="M1442,1081.93c-2.64-3.25-4.13-5.21-5-8.13a17.67,17.67,0,0,1,0-9.18c2.29-9.47,11.39-14.5,15.26-16.61a42.8,42.8,0,0,1,7.65-3.25,55.48,55.48,0,0,1,21.15-2.25,64.81,64.81,0,0,1,17.13,3,52.06,52.06,0,0,1,16.9,8.69,30.13,30.13,0,0,1,8.67,9.48,21.15,21.15,0,0,1,3.06,10.7,20.42,20.42,0,0,1-2.46,9.42c-.8,1.46-3,5-9.27,9a51.7,51.7,0,0,1-22.78,7.42,68.13,68.13,0,0,1-20.87-1.19c-5.84-1.24-14.35-3-22.06-9.35A49.54,49.54,0,0,1,1442,1081.93Z" fill="#f1f1f1"/><path d="M1441.42,1183.58c-1.71.86-9-8.31-12.25-15.39-.15-.31-.49-.39-.62-.7-3.06-7.43-18.4-6-18.4-6l-20.17-8.28-17,9c-7.4,2.67-12.32,7.42-14.06,14.77,0,0-8.52,20.71,12.71,55.92l23.49,9,27.66,7.17s12.93,4.36,17.41,6.87,8.54-12.25,8.54-12.25l3.25-39.35Z" fill="#ffc7b7"/><path d="M1533,1059.9a14.07,14.07,0,0,1-1.63-4.64,13,13,0,0,1,0-3.55,15.7,15.7,0,0,1,2.46-6.36,24.71,24.71,0,0,1,5.73-6.25,45.73,45.73,0,0,1,12.67-7,78.34,78.34,0,0,1,20.79-4.52,77.39,77.39,0,0,1,16.94.37,68.7,68.7,0,0,1,12,2.88,39.37,39.37,0,0,1,9.52,4.26,23.23,23.23,0,0,1,7.21,6.51,15,15,0,0,1,2.88,6.7,14.25,14.25,0,0,1-.5,6,18.14,18.14,0,0,1-4.44,6.88,35.92,35.92,0,0,1-8.7,6.83,50,50,0,0,1-12,4.88,80.74,80.74,0,0,1-16.12,2.91,71.06,71.06,0,0,1-17-.37,65.08,65.08,0,0,1-15.52-4.23,33,33,0,0,1-9.27-5.37A20.58,20.58,0,0,1,1533,1059.9Z" fill="#f1f1f1"/><path d="M1634,1153.84a73.22,73.22,0,0,0-8.13-3.69c-1.63-.36-8.38-.89-8.38-.89s-4.88-1-6.74-3.89a35.68,35.68,0,0,1-3.25-7.94s.15-7.68,1.63-9.27a9.4,9.4,0,0,1,4.88-3.38,8.77,8.77,0,0,1,4.88.44,25.5,25.5,0,0,0,5.38,1.9c2.85.65,10.87,3,14.15,3.09s6.18.46,6.18.46,15.06,6.13,12.17,13.41-9.18,12-10.92,12.32a46.24,46.24,0,0,1-8.13-.85Z" fill="#ffc7b7"/><path d="M1615.76,1126.28s-3.89,2.77-3.89,4.64,1.12,7.63,2.54,8.75,3.82,2.21,5.76.85,1.63-4.88,1.63-5.92a38,38,0,0,0-2.1-6.13S1616.8,1125.48,1615.76,1126.28Z" fill="#ffb3af"/><path d="M1857.71,1135.49c-4.62-7-14-21.15-17.65-28.71s-10.92-30.67-10.92-30.67-1.5-11.39-3.25-21.39,1.35-28,1.35-28,14.74-28.32,38.44-37c23.07-8.49,48.3-6.51,48.3-6.51s22.6,3,25.88,3.74,19.7,5.42,25.57,8.75c4.36,2.46,6.51,5.3,16.53,11.29s12.36,10,14.74,14.64c3.87,7.55,11.23,23.35,14.51,30.67s5.86,24.08,6.25,32.21c.33,6.87-.67,27.51-.67,27.51l-5.17,23.64s-4.7,10.31-6.13,14.74.34,5.24.42,6.93c0,.7-1.63,2.34-1.63,2.34s-.5,3.66-30,17.23-40.67,6.18-40.67,6.18Z" fill="#032c65"/><path d="M1877.46,1174.78c-.29,1.4-2.49,6.28-4.59,6.69s-3.25-2-4-7.09c-.31-2-.94-4.7-1.63-7.32-1-4.16-2.11-8-2.11-8s-3-18.84-3.79-20.65a7.48,7.48,0,0,1-.28-.76,2.78,2.78,0,0,1-.08-1.82c.55-4.69,4.3-2.94,4.88-2.49a26.13,26.13,0,0,1,4.39,4.59c3.25,5.37,6.88,18.64,8,23.83S1877.75,1173.38,1877.46,1174.78Z" fill="#e7aaa0"/><path d="M1877.46,1174.78c-.29,1.4-2.49,6.28-4.59,6.69s-3.25-2-4-7.09c-.31-2-.94-4.7-1.63-7.32.88-.86,1.82-1.55,2.52-1.45,1.79.24,2.15,3.64,2.9,3.6s1.14-7.48.34-9.13-7.53-13.86-7.53-13.86l-4.41-8.61a2.78,2.78,0,0,1-.08-1.82c.55-4.69,4.3-2.94,4.88-2.49a26.13,26.13,0,0,1,4.39,4.59c3.25,5.37,6.88,18.64,8,23.83S1877.75,1173.38,1877.46,1174.78Z" fill="#ffd3c5"/><path d="M1480.61,1538.34l-4-1.76-9.91-5.16-8.87-4s-4.8-1.63-8.13-2.54-8.13-2.51-8.13-2.51-3.84-2-6.69-3.82-3-2.23-3.89-4.1a2.88,2.88,0,0,1-.37-2.47c.1-.28.23-.57.37-.94a8.23,8.23,0,0,1,3.89-3.25,19.28,19.28,0,0,1,5.24-.6l1.35.29,1.94.42,7.26.68s4.78,1.53,6.28,1.82a44.34,44.34,0,0,0,5,.42,37,37,0,0,1,4.3,0,57.82,57.82,0,0,1,7,2.34c4.72,1.72,6.21.6,6.21.6C1504.64,1516.08,1480.61,1538.34,1480.61,1538.34Z" fill="#ffc7b7"/><path d="M1449.08,1575.23a40.25,40.25,0,0,1-3.94,4.05,5.63,5.63,0,0,1-5.16,1.63,2.46,2.46,0,0,1-1.76-1.12c.1-.28.23-.57.37-.94a8.23,8.23,0,0,1,3.89-3.25,19.28,19.28,0,0,1,5.24-.6Z" fill="#ffb3af"/><path d="M1447.73,1464.92a7.63,7.63,0,0,1-.78,1.63,45.55,45.55,0,0,1-6.8,6.51c-1,.89-4.57-.08-6.82-.86a6.39,6.39,0,0,1,.31-1.35c.94-2.85,6.51-5.89,6.51-5.89A49.6,49.6,0,0,1,1447.73,1464.92Z" fill="#ffb3af"/><path d="M1914,1373.32c.29,7.86,5.35,29.48,4.49,53.54-1,28.29-8.38,57.15-8.38,57.15l-19.95,74.59-6.51,17.57c-14.64,10.07-32.75,20.66-64.85,14.64a78.46,78.46,0,0,1-41.76-22.6l1.63-21.15-.16-8.75s-.52-25.43-.29-32-2.1-23.72-2.1-23.72-.75-4.1-2.54-13.45-2.86-24.61-2.86-24.61-.75-6.88,1.79-20.5,8.52-24.68,11.39-31.42,12.85-17,21-26.62,39.5-30.23,39.5-30.23C1864.13,1332.42,1913.33,1356.13,1914,1373.32Z" fill="#62b0ff"/><path d="M2073.27,1216.77c.31.2,10.18-7.29,17-9.88s23.54-11,40.3-6.69,30.91,8.13,38.69,20.84a100.23,100.23,0,0,1,10.77,24.24s-18.69-17.26-50.71-23.15c0,0-11.52-1.46-19.52-1.84s-22.78-2.25-22.78-2.25Z" fill="#62b0ff"/><path d="M2025,1201.9s-25,33.84-38.7,41.18c-17.9,9.53-87.54,22.55-87.54,22.55H1885s12.38,22.29,6.1,30.81,106.74,6.51,133.88-21.47a106.66,106.66,0,0,0,29.51-60.6S2037.32,1212,2025,1201.9Z" fill="#62b0ff"/><ellipse cx="1196.48" cy="979.93" rx="2.85" ry="6.13" fill="#131313"/><path d="M1187.17,1049.7a5.27,5.27,0,0,0-1.63,1.79c-.24.44-.83,1.51-.42,2.2.54.94,2.7.68,4,.28a8,8,0,0,0,4.13-3.61c.65-1,1.37-2.08.94-3C1193.86,1046.66,1191.69,1046.38,1187.17,1049.7Z" fill="#131313"/><ellipse cx="1157.63" cy="908.88" rx="4.9" ry="5.17" transform="matrix(0.85, -0.53, 0.53, 0.85, -305.45, 749)" fill="#131313"/><polygon points="1396.99 2081.15 1482.76 2081.85 1481.15 2068.12 1396.99 2067.81 1396.1 2074.57 1396.99 2081.15" fill="#bd6940"/><path d="M1176.86,876.08c0,.78-.11,1.63-.15,2.31-.91,14.77-1.63,25.35-1.63,25.35S1159,883.17,1154,879.34s-21.54-13.76-21.54-13.76L1116.78,856l-.73-2-6.8-10.57-2.88-4.49a101.19,101.19,0,0,1-2.6-11.19L1096,824l11.06,34.26,80,61-11.66-14.89Z" fill="#ffe495"/><path d="M2192.55,1821.42c-2.38,5.08-4.12,8.35-4.12,8.35s-13.6,16.61-41.88,32.54a61.38,61.38,0,0,1-28.89,7.79H2113l2.75-9.76C2116.59,1862.75,2161.74,1850.7,2192.55,1821.42Z" fill="#002938"/><path d="M1623.83,1159l-1,15.8-1.35,25.27-.29,11v.34l.29,18a41.88,41.88,0,0,1-4.44,6.93,49.39,49.39,0,0,1-9.32,6.08,66.5,66.5,0,0,1-18.79,5,70.25,70.25,0,0,1-17.49-.75,51.46,51.46,0,0,1-10.14-3.09,80.89,80.89,0,0,1-7.08-4.7,12.32,12.32,0,0,1-3.94-4.25,14.15,14.15,0,0,1-1.63-5.66v-5.87l-.33-8v-.23l-.59-6.39-3.25-20.4-3.6-22.09C1565.68,1180.42,1607.31,1173.92,1623.83,1159Z" fill="#ff9700"/><path d="M1621.52,1229.38a41.88,41.88,0,0,1-4.44,6.93,49.39,49.39,0,0,1-9.32,6.08,66.5,66.5,0,0,1-18.79,5,70.25,70.25,0,0,1-17.49-.75,52.58,52.58,0,0,1-10.14-3.07,84.88,84.88,0,0,1-7.08-4.72,12.32,12.32,0,0,1-3.94-4.25,14.15,14.15,0,0,1-1.63-5.66v-5.87l-.33-8a23.72,23.72,0,0,0,13,10.77,62.85,62.85,0,0,0,30.26,2.9c10.53-1.63,16.81-4.18,22.89-9A26.18,26.18,0,0,0,1621,1211v.34Z" fill="#ff6d00"/><ellipse cx="1572.79" cy="1075.26" rx="12.15" ry="3.79" fill="#f1f1f1"/><path d="M1582.36,1078.47c0,2.1-3.43,16.94-8.7,16.94s-10.43-14.84-10.43-16.94,4.29-3.79,9.57-3.79S1582.36,1076.3,1582.36,1078.47Z" fill="#f1f1f1"/></svg>