<svg xmlns="http://www.w3.org/2000/svg" viewBox="0 0 58.25 54.55"><defs><style>.cls-1{fill:#fff;}</style></defs><title>filter</title><g id="Layer_2" data-name="Layer 2"><g id="Layer_1-2" data-name="Layer 1"><path class="cls-1" d="M32,7.72a11.21,11.21,0,0,0-21.31,0H0V14.2H10.53a11.21,11.21,0,0,0,21.63,0H58.25V7.72ZM21.34,18.08a6.85,6.85,0,0,1-6.16-3.88,6.76,6.76,0,0,1,.29-6.48,6.83,6.83,0,0,1,11.75,0,6.72,6.72,0,0,1,1,3.5,6.88,6.88,0,0,1-6.86,6.86Z"/><path class="cls-1" d="M36,32.1a11.25,11.25,0,0,0-10.74,8H0v6.48H25.28a11.22,11.22,0,0,0,21.49,0H58.25V40.08H46.77A11.25,11.25,0,0,0,36,32.1Zm6.86,11.22a6.86,6.86,0,1,1-.82-3.24A6.8,6.8,0,0,1,42.88,43.32Z"/></g></g></svg>