<svg xmlns="http://www.w3.org/2000/svg" viewBox="0 0 63.92 74.35"><defs><style>.cls-1{fill:#00bd19;}</style></defs><title>flag</title><g id="Layer_2" data-name="Layer 2"><g id="Layer_1-2" data-name="Layer 1"><path class="cls-1" d="M63.15,9.25a1.48,1.48,0,0,0-1.65.23c-4,3.58-7.67,5.32-11.25,5.32s-7-1.65-11.35-5.38c-9.35-8-18.55-8-29.29-.34C8.86,9.61,8.86,9.61,9,25c0,6,.1,13.52,0,14.57a1.47,1.47,0,0,0,1.06,1.8A1.46,1.46,0,0,0,11.39,41a22.2,22.2,0,0,1,13.05-4.6,19.79,19.79,0,0,1,8.86,2.15A21.86,21.86,0,0,0,43,41.16c17.83,0,20.77-29.18,20.89-30.42a1.48,1.48,0,0,0-.76-1.49Z"/><rect class="cls-1" width="7.5" height="74.35" rx="3.06"/></g></g></svg>