<svg xmlns="http://www.w3.org/2000/svg" xmlns:xlink="http://www.w3.org/1999/xlink" viewBox="0 0 154.74 50.02"><defs><style>.cls-1{fill:url(#linear-gradient);}.cls-2{fill:url(#linear-gradient-2);}.cls-3{fill:url(#linear-gradient-3);}.cls-4{fill:url(#linear-gradient-4);}.cls-5{fill:url(#linear-gradient-5);}</style><linearGradient id="linear-gradient" x1="2.6" y1="-8.88" x2="158.02" y2="33.44" gradientUnits="userSpaceOnUse"><stop offset="0" stop-color="#0f1961"/><stop offset="1" stop-color="#002896"/></linearGradient><linearGradient id="linear-gradient-2" x1="0.35" y1="-0.61" x2="155.77" y2="41.71" xlink:href="#linear-gradient"/><linearGradient id="linear-gradient-3" x1="-3.29" y1="12.75" x2="152.13" y2="55.08" xlink:href="#linear-gradient"/><linearGradient id="linear-gradient-4" x1="-1.69" y1="6.87" x2="153.73" y2="49.19" xlink:href="#linear-gradient"/><linearGradient id="linear-gradient-5" x1="-2.75" y1="10.75" x2="152.68" y2="53.08" xlink:href="#linear-gradient"/></defs><title>visa-logo</title><g id="Layer_2" data-name="Layer 2"><g id="_10" data-name="10"><path class="cls-1" d="M154.65,48.84a.48.48,0,0,0-.07-.35.08.08,0,0,0,0-.08.36.36,0,0,0-.07-.3h0l0-.13a.35.35,0,0,0-.07-.29h0s0,0,0,0a.49.49,0,0,0-.08-.37h0s0,0,0-.06a.5.5,0,0,0-.07-.36s0-.05,0-.07a.5.5,0,0,0-.07-.36.06.06,0,0,0,0-.07.4.4,0,0,0-.07-.3h0v0l0,0a.55.55,0,0,0-.08-.38h0s0,0,0-.06a.47.47,0,0,0-.08-.36s0-.05,0-.07a.48.48,0,0,0-.07-.35.06.06,0,0,0,0-.08.49.49,0,0,0-.07-.35.08.08,0,0,0,0-.08.39.39,0,0,0-.07-.29h0v0l0,0a.49.49,0,0,0-.08-.37h0s0,0,0-.06a.46.46,0,0,0-.08-.36,0,0,0,0,0,0-.07.46.46,0,0,0-.08-.36,0,0,0,0,0,0-.07.36.36,0,0,0-.07-.3h0l0-.13a.33.33,0,0,0-.06-.29h0v0l0,0a.54.54,0,0,0-.08-.37h0s0,0,0-.06a.49.49,0,0,0-.08-.37s0,0,0-.06a.51.51,0,0,0-.08-.36s0,0,0-.07a.35.35,0,0,0-.07-.3h0l0-.13a.36.36,0,0,0-.06-.29h0v0l0,0a.57.57,0,0,0-.08-.36,0,0,0,0,0,0-.07.52.52,0,0,0-.08-.36,0,0,0,0,0,0-.07.48.48,0,0,0-.08-.35.06.06,0,0,0,0-.08.34.34,0,0,0-.07-.29h0l0,0,0,0a.59.59,0,0,0-.08-.37s0-.05,0-.06a.59.59,0,0,0-.08-.37h0s0,0,0-.06a.51.51,0,0,0-.08-.36,0,0,0,0,0,0-.07.47.47,0,0,0-.08-.35.06.06,0,0,0,0-.08.33.33,0,0,0-.07-.29h0l0,0,0,0a.63.63,0,0,0-.08-.38s0,0,0-.05a.59.59,0,0,0-.08-.37s0,0,0-.06a6.67,6.67,0,0,0-.2-1.1q-1.65-7.92-3.31-15.83-1.78-8.52-3.56-17c-.09-.46,0-.39-.5-.39q-5,0-10.05,0a1.26,1.26,0,0,0-.55,0h0a2.89,2.89,0,0,0-.93.1,5.33,5.33,0,0,0-3,1.79h0c0,.05,0,.07-.08.1h0a.39.39,0,0,1-.08.1h0l-.07.08v0a.17.17,0,0,0-.11.15h0s0,.06-.07.09h0a.16.16,0,0,0-.1.16h0c0,.05,0,.07-.07.1h0a.18.18,0,0,0-.09.17.19.19,0,0,0-.1.17h0a.41.41,0,0,1-.05.09,0,0,0,0,0,0,.06.23.23,0,0,0-.09.19.18.18,0,0,0-.07.18.15.15,0,0,0-.08.17,0,0,0,0,0,0,.05.23.23,0,0,0-.08.2.19.19,0,0,0-.08.18h0a.17.17,0,0,0-.07.17s0,0,0,.06a.22.22,0,0,0-.09.2.16.16,0,0,0-.07.17l0,0v0a.17.17,0,0,1-.06.12.06.06,0,0,0,0,.07.21.21,0,0,0-.08.19h0a.17.17,0,0,0-.07.17s0,0,0,.06a.24.24,0,0,0-.08.2.16.16,0,0,0-.07.17l0,0v0a.22.22,0,0,1-.06.13,0,0,0,0,0,0,.06.21.21,0,0,0-.08.19.21.21,0,0,0-.08.18,0,0,0,0,0,0,.05.22.22,0,0,0-.08.2.18.18,0,0,0-.07.18h0a.18.18,0,0,0-.07.17,3.59,3.59,0,0,0-.17.34c-.69,1.66-1.39,3.31-2.08,5a11.52,11.52,0,0,0-.52,1.31.16.16,0,0,0-.07.17h0c-.06.12-.12.23-.17.34q-2.72,6.5-5.43,13a5.07,5.07,0,0,0-.34.87c-.09.07-.1.17-.14.26l-8.26,19.72c0,.12-.14.22-.09.38h12.72c.34,0,.35,0,.47-.35.44-1.22.89-2.45,1.32-3.68a3.87,3.87,0,0,0,.26-.77,25,25,0,0,0,.86-2.38,1.23,1.23,0,0,1,.47,0h15.21c.41,0,.41,0,.49.4.35,1.67.69,3.34,1,5a13.41,13.41,0,0,0,.4,1.75c.09.14.24.07.35.07h10.88c.09,0,.19,0,.28,0A.55.55,0,0,0,154.65,48.84ZM138.79,32H132.1a.93.93,0,0,0-.65.12,2,2,0,0,0-1-.1c-1,0-1.12.21-.67-1a8.88,8.88,0,0,0,.63-1.95.05.05,0,0,0,0,0c.19-.06.19-.25.25-.4.46-1.22.89-2.45,1.33-3.67.38-1.06.81-2.11,1.13-3.19a1.57,1.57,0,0,1,0-.23.44.44,0,0,0,0-.1,1.17,1.17,0,0,1,.06-.2.32.32,0,0,0,0-.09,1.21,1.21,0,0,0,.05-.14,1,1,0,0,1,0-.1c0-.05,0-.1,0-.14l0-.1.06-.13,0-.09a.5.5,0,0,1,0-.13l0-.09a1.27,1.27,0,0,1,.06-.18l0-.09a.58.58,0,0,1,.05-.14.36.36,0,0,1,0-.09l.06-.13,0-.09a.64.64,0,0,1,.06-.18l0-.09c0-.05,0-.09,0-.14a.32.32,0,0,0,0-.09l.05-.14s0-.05,0-.08l.06-.13,0-.1.06-.17,0-.1a.69.69,0,0,1,0-.13l0-.09c0-.05,0-.1,0-.14l.05-.09.06-.13,0-.09a.64.64,0,0,1,.06-.18l0-.09a.74.74,0,0,1,0-.14l0-.09.05-.14,0-.09.06-.13,0-.09a.64.64,0,0,1,.06-.18l0-.09,0-.13a.3.3,0,0,0,0-.1.59.59,0,0,0,0-.14V16h0v0l0,0c.4-.42.4-1,.7-1.53l.34,1.58c.56,2.68,1.11,5.36,1.68,8,0,.15,0,.35.22.42h0a.1.1,0,0,0,0,.1c0,.1,0,.21,0,.31a.36.36,0,0,0,0,.1,1.22,1.22,0,0,1,.06.26l0,.1a1.65,1.65,0,0,1,.06.32.36.36,0,0,0,0,.1,1.28,1.28,0,0,1,.06.33l0,.11a2,2,0,0,1,.06.35.5.5,0,0,0,0,.12,1.33,1.33,0,0,1,0,.4c.24,1.42.58,2.83.86,4.24C139.45,32,139.43,32,138.79,32Z"/><path class="cls-2" d="M108.34,26.54a15.62,15.62,0,0,0-3.49-3.35A38.4,38.4,0,0,0,100,20.25a15.12,15.12,0,0,0-1.45-.73,8.19,8.19,0,0,0-1-.59,19.32,19.32,0,0,1-2.82-1.81,5.17,5.17,0,0,1-1.16-1.26,2.74,2.74,0,0,1-.16-2.78,3.73,3.73,0,0,1,1.14-1.38c.22-.18.46-.33.69-.5s.73-.33,1.1-.47a12.77,12.77,0,0,1,3.11-.6h.47a22.6,22.6,0,0,1,3.08.11,25.44,25.44,0,0,1,7.42,2c.1.05.19.14.34.08,0-.25.12-.51.17-.78.15-.78.37-1.55.47-2.35l.05-.07c.48-2.25.95-4.5,1.44-6.74,0-.21,0-.28-.19-.34-.8-.28-1.6-.55-2.41-.77a17.42,17.42,0,0,0-2.16-.52.83.83,0,0,0-.28-.08A31.74,31.74,0,0,0,102.36,0,25.52,25.52,0,0,0,98,.18h-.18a.51.51,0,0,0-.36.06.94.94,0,0,0-.41,0,.34.34,0,0,0-.28,0,.74.74,0,0,0-.33,0,.31.31,0,0,0-.26.06,14.29,14.29,0,0,0-2.43.47,12.5,12.5,0,0,0-2.32.73l-.17,0a20.1,20.1,0,0,0-5.61,3.09,10.8,10.8,0,0,0-1.57,1.45h0a.27.27,0,0,0-.07.08h0a.13.13,0,0,0-.06.07l0,0a.09.09,0,0,0-.06.06,1,1,0,0,0-.29.34.2.2,0,0,1-.09.09h0L83.38,7h0a.27.27,0,0,0-.07.08v0a.09.09,0,0,0-.06.06c-.1.12-.21.23-.3.36a13.87,13.87,0,0,0-2.85,7.38,11.16,11.16,0,0,0,.64,5.06A12.56,12.56,0,0,0,84,24.61a25.75,25.75,0,0,0,5.76,3.93,4.57,4.57,0,0,0,.92.44.19.19,0,0,0,.18.09h0a.19.19,0,0,0,.17.08h0a.18.18,0,0,0,.17.09h0a.15.15,0,0,0,.16.08h0a.18.18,0,0,0,.17.09h0a.17.17,0,0,0,.17.08h0a.19.19,0,0,0,.17.08h0a.15.15,0,0,0,.16.09h0a.15.15,0,0,0,.16.09h0a.17.17,0,0,0,.17.08h0a.16.16,0,0,0,.17.09.17.17,0,0,0,.17.09h0l.09.06,0,0h0a.17.17,0,0,1,.11.06l0,0h0a.16.16,0,0,1,.12.08h0c.62.41,1.27.75,1.88,1.19A8.28,8.28,0,0,1,96.7,33a3.6,3.6,0,0,1,.75,1.8,5.28,5.28,0,0,1,0,1.19l0,.14a.21.21,0,0,0-.07.21,0,0,0,0,0,0,.06.2.2,0,0,0-.07.19h0a.16.16,0,0,0-.08.17s0,0,0,.05a.29.29,0,0,1-.07.12h0a.18.18,0,0,0-.09.16h0a.27.27,0,0,0-.07.08.31.31,0,0,0-.11.18.35.35,0,0,0-.07.09h0a.11.11,0,0,0-.06.07l-.63.63a.13.13,0,0,0-.07.06.8.8,0,0,0-.28.2.13.13,0,0,0-.07.06,10.43,10.43,0,0,1-3,1.18c-.63.13-1.27.17-1.9.28H87.86a.9.9,0,0,0-.43,0,26.27,26.27,0,0,1-4.57-.76,31.89,31.89,0,0,1-5.16-2,1.62,1.62,0,0,0-.57-.22c-.16.78-.37,1.53-.47,2.31l0,.12c-.18.62-.29,1.25-.42,1.88L75,47c-.09.43-.09.43.3.59a17.05,17.05,0,0,0,1.81.66,15.89,15.89,0,0,0,2.23.58.23.23,0,0,0,.21.06l.15,0a.31.31,0,0,0,.28.06l.13,0a.36.36,0,0,0,.3.07l0,0h0a.42.42,0,0,0,.24.07,43.76,43.76,0,0,0,5.81.75,26.64,26.64,0,0,0,4.19,0,3.65,3.65,0,0,0,.66,0,.85.85,0,0,0,.22,0,.74.74,0,0,0,.33,0,1.45,1.45,0,0,0,.62-.07h0a.81.81,0,0,0,.31,0H93a29.82,29.82,0,0,0,3.25-.56,17,17,0,0,0,2.22-.63.2.2,0,0,0,.19-.07h0l0,0a.17.17,0,0,0,.19-.07h0l0,0a.18.18,0,0,0,.19-.07h0l0,0a.16.16,0,0,0,.17-.07h0a.2.2,0,0,0,.2-.07h0l0,0a.18.18,0,0,0,.18-.07h0l0,0s.07-.06.12-.06l-.12.06a.1.1,0,0,0,.12-.06h0l0,0a.17.17,0,0,0,.17-.08h0a.21.21,0,0,0,.19-.08h0l0,0a.15.15,0,0,0,.16-.08h0a.15.15,0,0,0,.17-.08h0a.17.17,0,0,0,.17-.08c.07,0,.14,0,.17-.08s.14,0,.18-.09h0l.19-.07a17.58,17.58,0,0,0,3.71-2.43,11.41,11.41,0,0,0,1.84-1.9,5.24,5.24,0,0,0,.72-.91,14.88,14.88,0,0,0,2.64-9A11.08,11.08,0,0,0,108.34,26.54Z"/><path class="cls-3" d="M53.87,12.46a.32.32,0,0,0,.11-.24.2.2,0,0,0,.07-.18.19.19,0,0,0,.08-.17s0,0,0-.06a.22.22,0,0,0,.09-.2.16.16,0,0,0,.07-.17h0a.16.16,0,0,0,.07-.16s0,0,0-.07a.19.19,0,0,0,.08-.19.19.19,0,0,0,.08-.18h0v0a.24.24,0,0,0,.09-.21c.07,0,.08-.1.08-.18h0a.18.18,0,0,0,.07-.17s0,0,0-.06a.2.2,0,0,0,.08-.19A1.1,1.1,0,0,0,55,9.84q1.8-4.3,3.61-8.62c0-.08.12-.16.06-.27s-.21-.06-.32-.06q-6.19,0-12.4,0c-.11,0-.23-.06-.32.06h0a.14.14,0,0,0-.08.15.06.06,0,0,0,0,.07.19.19,0,0,0-.07.19.31.31,0,0,0-.1.25.17.17,0,0,0-.07.18h0a.31.31,0,0,0-.1.25.19.19,0,0,0-.08.18h0a.3.3,0,0,0-.09.24.19.19,0,0,0-.08.18l0,0v0a.24.24,0,0,0-.08.21h0c-.53,1.19-1,2.4-1.44,3.62a0,0,0,0,1,0,0h0s0,0,0,0l0,.08a.61.61,0,0,0-.14.35,0,0,0,0,1,0,0h0s0,0,0,0l0,.08a18.12,18.12,0,0,0-.75,1.89l0,.08a.57.57,0,0,0-.14.35.06.06,0,0,1,0,0h0s0,0,0,0l0,.08h0a.57.57,0,0,0-.14.35,2.72,2.72,0,0,0-.16.35l-3.21,8.1c-.4,1-.83,2-1.19,3.08a0,0,0,0,0,0,.06.21.21,0,0,0-.08.19l0,0v0a.2.2,0,0,1-.06.12h0a.06.06,0,0,0,0,.08.18.18,0,0,0-.08.18l0,0v0c0,.05,0,.08-.06.12a.06.06,0,0,0,0,.08.18.18,0,0,0-.08.18,0,0,0,0,0,0,0,.26.26,0,0,1-.05.12l0,.08a.19.19,0,0,0-.08.18,0,0,0,0,0,0,.06s0,.07-.05.11l0,.08a.17.17,0,0,0-.08.18,0,0,0,0,0,0,.06s0,.07,0,.11l0,.09a.16.16,0,0,0-.07.17s0,0,0,.06a.22.22,0,0,0-.08.2h0a.16.16,0,0,0-.07.17s0,0,0,.07a.19.19,0,0,0-.08.19h0a.18.18,0,0,0-.07.17c-.13.31-.27.63-.39.94-.28.72-.6,1.42-.83,2.15a.35.35,0,0,0-.1.26.2.2,0,0,0-.07.18h0a.29.29,0,0,0-.1.25.2.2,0,0,0-.07.18h0a.3.3,0,0,0-.1.25.18.18,0,0,0-.07.18h0v0a.22.22,0,0,0-.09.21.18.18,0,0,0-.07.18h0l0,0v0a.25.25,0,0,0-.08.21.18.18,0,0,0-.07.18l0,0v0a.22.22,0,0,0-.08.2.71.71,0,0,0-.16.34l-1.23,3.1s0,.09-.06.1h0s0,.09,0,.09h0s0,0,0,0v0s0-.06,0-.1c-.15-.77-.29-1.54-.44-2.31l-1.68-8.95-1.68-8.9c-.48-2.57-1-5.15-1.46-7.72A5.83,5.83,0,0,0,21.39.88Q11,.9.67.88C.55.88.42.83.31.94A6.16,6.16,0,0,0,0,2.29l.4.11c1.4.3,2.77.66,4.14,1.05l2.3.68a.29.29,0,0,0,.25.08h0l2.82,1a2.3,2.3,0,0,0,.5.24,20.43,20.43,0,0,1,2.34,1.17,4.38,4.38,0,0,1,1.91,2.08.76.76,0,0,0,.08.11.19.19,0,0,0,.08.19s0,0,0,.06a.19.19,0,0,0,.07.18.35.35,0,0,0,.09.26.34.34,0,0,0,.09.27,0,0,0,0,0,0,.07.21.21,0,0,0,.07.21h0v0l0,0a.3.3,0,0,0,.08.27,0,0,0,0,0,0,.07.32.32,0,0,0,.07.27c0,.09,0,.17,0,.26.64,2.46,1.28,4.93,1.91,7.39l7.26,28.08c.23.87.42,1.75.7,2.61,0,.27.23.16.36.16,1.33,0,2.66,0,4,0H38c.53,0,.42.07.63-.44.32-.73.63-1.47.93-2.21A7.65,7.65,0,0,0,40,45.49a.84.84,0,0,0,.17-.34c.59-1.39,1.18-2.78,1.75-4.18a9.27,9.27,0,0,0,.49-1.23.17.17,0,0,0,.08-.18h0a.32.32,0,0,0,.11-.24.21.21,0,0,0,.07-.18.19.19,0,0,0,.08-.18l0,0v0a.22.22,0,0,0,.09-.2.17.17,0,0,0,.07-.18h0a.17.17,0,0,0,.08-.17s0,0,0-.06a.2.2,0,0,0,.08-.19.18.18,0,0,0,.08-.18l0,0v0a.24.24,0,0,0,.09-.21.18.18,0,0,0,.08-.18.18.18,0,0,0,.07-.17s0,0,0-.06a.2.2,0,0,0,.08-.19.19.19,0,0,0,.08-.18h0a1,1,0,0,0,.17-.35l4-9.66a11.15,11.15,0,0,0,.52-1.31h0a.81.81,0,0,0,.1-.18q1.26-3,2.51-6a1.66,1.66,0,0,0,.06-.21,1.55,1.55,0,0,0,.12-.22c.8-1.9,1.59-3.8,2.39-5.71a1.17,1.17,0,0,0,.06-.2.16.16,0,0,0,.07-.17s0,0,0-.06a.22.22,0,0,0,.09-.2.16.16,0,0,0,.07-.17Z"/><path class="cls-4" d="M76.55,1.23c.07-.33.06-.34-.27-.35H64.5c-.12,0-.25-.06-.36,0a14.22,14.22,0,0,0-.42,1.8,18.54,18.54,0,0,0-.39,2,.37.37,0,0,0-.08.24l-2.61,12.2c-.36,1.68-.71,3.35-1.06,5a.37.37,0,0,0,0,.23.19.19,0,0,0,0,.2.34.34,0,0,0,0,.22.2.2,0,0,0-.05.21l0,.16a.17.17,0,0,0,0,.18c0,.16-.08.31-.11.46q-.93,4.32-1.85,8.64c-.19.9-.42,1.78-.55,2.69a.05.05,0,0,0,0,.08.27.27,0,0,0-.07.26.78.78,0,0,0,0,.16.33.33,0,0,0-.07.27c0,.11-.07.22-.09.33-.74,3.45-1.49,6.89-2.22,10.34-.16.77-.36,1.53-.46,2.31a.31.31,0,0,0,0,.32l.13,0H66c.24,0,.32-.08.37-.3.28-1.36.57-2.72.86-4.08.15-.71.34-1.41.43-2.14s.35-1.5.51-2.25q1.36-6.34,2.71-12.69c.17-.78.38-1.55.48-2.35a.46.46,0,0,0,.08-.24Q72.6,19.67,73.8,14.1c.16-.76.36-1.52.46-2.31l.07-.15c.51-2.41,1-4.81,1.54-7.22C76.1,3.36,76.33,2.29,76.55,1.23Z"/><path class="cls-5" d="M37.38,21.75l.06-.12A.1.1,0,0,0,37.38,21.75Z"/></g></g></svg>